<svg width="275" height="74" viewBox="0 0 275 74" fill="none" xmlns="http://www.w3.org/2000/svg">
<path fill-rule="evenodd" clip-rule="evenodd" d="M11.3888 11.4114C10.0693 12.7246 10.0693 14.8382 10.0693 19.0655V50.4513C10.0693 54.6785 10.0693 56.7921 11.3888 58.1054C12.7083 59.4186 14.832 59.4186 19.0795 59.4186H28.2039C28.3479 60.876 28.6735 61.8569 29.4091 62.589C30.7287 63.9023 32.8524 63.9023 37.0997 63.9023H56.6217C60.8691 63.9023 62.9927 63.9023 64.3123 62.589C65.6318 61.2758 65.6318 59.1622 65.6318 54.9349V34.0111C65.6318 29.7839 65.6318 27.6703 64.3123 26.357C63.3492 25.3986 61.9578 25.1395 59.6251 25.0696V19.0655C59.6251 14.8382 59.6251 12.7246 58.3055 11.4114C56.986 10.0981 54.8623 10.0981 50.6149 10.0981H19.0795C14.832 10.0981 12.7083 10.0981 11.3888 11.4114ZM59.6251 25.0696C58.7616 25.0437 57.7691 25.0437 56.6217 25.0437H37.0997C32.8524 25.0437 30.7287 25.0437 29.4091 26.357C28.0896 27.6703 28.0896 29.7839 28.0896 34.0111V54.9349C28.0896 56.8054 28.0896 58.262 28.2039 59.4186H50.6149C54.8623 59.4186 56.986 59.4186 58.3055 58.1054C59.6251 56.7921 59.6251 54.6785 59.6251 50.4513V25.0696Z" fill="#66C5B8"/>
<path d="M75.9579 46V43.5692L89.2913 29.5378L91.337 30.5968H76.0542V27.9493H92.5886V30.3561L79.2311 44.4356L77.4741 43.3526H92.6608V46H75.9579ZM107.391 46L106.861 40.9458L107.487 39.1889L106.861 37.456L107.391 32.3778H110.616L109.894 39.1889L110.616 46H107.391ZM108.353 39.1889C108.048 40.6169 107.543 41.8684 106.837 42.9434C106.131 44.0184 105.257 44.8528 104.214 45.4464C103.187 46.0401 102.04 46.3369 100.772 46.3369C99.4403 46.3369 98.261 46.0401 97.2342 45.4464C96.2073 44.8367 95.405 43.9944 94.8274 42.9194C94.2498 41.8443 93.961 40.6008 93.961 39.1889C93.961 37.7609 94.2498 36.5174 94.8274 35.4584C95.405 34.3834 96.2073 33.5491 97.2342 32.9554C98.261 32.3457 99.4403 32.0408 100.772 32.0408C102.04 32.0408 103.187 32.3377 104.214 32.9313C105.257 33.525 106.131 34.3593 106.837 35.4344C107.559 36.4933 108.065 37.7448 108.353 39.1889ZM97.1379 39.1889C97.1379 40.1035 97.3224 40.9137 97.6914 41.6197C98.0765 42.3096 98.598 42.8552 99.2558 43.2563C99.9137 43.6414 100.668 43.8339 101.518 43.8339C102.385 43.8339 103.187 43.6414 103.925 43.2563C104.663 42.8552 105.313 42.3096 105.874 41.6197C106.452 40.9137 106.909 40.1035 107.246 39.1889C106.909 38.2743 106.452 37.4721 105.874 36.7821C105.313 36.0762 104.663 35.5306 103.925 35.1455C103.187 34.7444 102.385 34.5439 101.518 34.5439C100.668 34.5439 99.9137 34.7444 99.2558 35.1455C98.598 35.5306 98.0765 36.0762 97.6914 36.7821C97.3224 37.4721 97.1379 38.2743 97.1379 39.1889ZM116.9 50.3081C116.098 50.3081 115.368 50.2038 114.71 49.9952C114.068 49.8027 113.466 49.5299 112.905 49.1769V46.7942C113.514 47.1793 114.092 47.4601 114.638 47.6366C115.199 47.8131 115.825 47.9013 116.515 47.9013C117.173 47.9013 117.758 47.7489 118.272 47.4441C118.785 47.1552 119.21 46.6418 119.547 45.9037L125.685 32.3778H129.006L121.954 46.9627C121.569 47.765 121.112 48.4068 120.582 48.8881C120.069 49.3855 119.499 49.7465 118.874 49.9711C118.264 50.1958 117.606 50.3081 116.9 50.3081ZM118.464 45.5668L112.207 32.3778H115.648L121.569 45.5668H118.464ZM130.181 32.3778H133.31L134.129 37.2876V46H131V36.8303L130.181 32.3778ZM139.159 32.0408C140.362 32.0408 141.381 32.2975 142.215 32.811C143.066 33.3244 143.707 34.0625 144.141 35.0252C144.59 35.9719 144.815 37.1191 144.815 38.4669V46H141.686V38.9723C141.686 37.5443 141.381 36.4693 140.771 35.7472C140.178 35.0092 139.303 34.6401 138.148 34.6401C137.33 34.6401 136.616 34.8407 136.006 35.2418C135.412 35.6269 134.947 36.1724 134.61 36.8784C134.289 37.5844 134.129 38.4107 134.129 39.3574L133.021 38.7557C133.166 37.3437 133.511 36.1403 134.056 35.1455C134.618 34.1507 135.332 33.3886 136.198 32.8591C137.081 32.3136 138.068 32.0408 139.159 32.0408ZM149.821 32.0408C151.024 32.0408 152.051 32.2975 152.901 32.811C153.752 33.3244 154.393 34.0625 154.827 35.0252C155.276 35.9719 155.501 37.1191 155.501 38.4669V46H152.372V38.9723C152.372 37.5443 152.067 36.4693 151.457 35.7472C150.864 35.0092 149.989 34.6401 148.834 34.6401C148.016 34.6401 147.302 34.8407 146.692 35.2418C146.098 35.6269 145.633 36.1724 145.296 36.8784C144.975 37.5844 144.815 38.4107 144.815 39.3574L143.707 38.7557C143.852 37.3437 144.197 36.1403 144.742 35.1455C145.304 34.1507 146.018 33.3886 146.884 32.8591C147.767 32.3136 148.746 32.0408 149.821 32.0408ZM171.344 46L170.814 40.9458L171.44 39.1889L170.814 37.456L171.344 32.3778H174.569L173.847 39.1889L174.569 46H171.344ZM172.306 39.1889C172.001 40.6169 171.496 41.8684 170.79 42.9434C170.084 44.0184 169.21 44.8528 168.167 45.4464C167.14 46.0401 165.993 46.3369 164.725 46.3369C163.393 46.3369 162.214 46.0401 161.187 45.4464C160.16 44.8367 159.358 43.9944 158.78 42.9194C158.203 41.8443 157.914 40.6008 157.914 39.1889C157.914 37.7609 158.203 36.5174 158.78 35.4584C159.358 34.3834 160.16 33.5491 161.187 32.9554C162.214 32.3457 163.393 32.0408 164.725 32.0408C165.993 32.0408 167.14 32.3377 168.167 32.9313C169.21 33.525 170.084 34.3593 170.79 35.4344C171.512 36.4933 172.017 37.7448 172.306 39.1889ZM161.091 39.1889C161.091 40.1035 161.275 40.9137 161.644 41.6197C162.029 42.3096 162.551 42.8552 163.209 43.2563C163.867 43.6414 164.621 43.8339 165.471 43.8339C166.337 43.8339 167.14 43.6414 167.878 43.2563C168.616 42.8552 169.266 42.3096 169.827 41.6197C170.405 40.9137 170.862 40.1035 171.199 39.1889C170.862 38.2743 170.405 37.4721 169.827 36.7821C169.266 36.0762 168.616 35.5306 167.878 35.1455C167.14 34.7444 166.337 34.5439 165.471 34.5439C164.621 34.5439 163.867 34.7444 163.209 35.1455C162.551 35.5306 162.029 36.0762 161.644 36.7821C161.275 37.4721 161.091 38.2743 161.091 39.1889ZM176.93 32.3778H180.059L180.877 37.3357V46H177.748V36.734L176.93 32.3778ZM187.784 32.2815V35.0252C187.431 34.9289 187.046 34.8567 186.629 34.8086C186.212 34.7605 185.819 34.7364 185.45 34.7364C184.567 34.7364 183.781 34.9289 183.091 35.314C182.401 35.6991 181.856 36.2767 181.455 37.0469C181.069 37.801 180.877 38.7316 180.877 39.8387L180.155 38.9482C180.219 37.9855 180.38 37.087 180.636 36.2526C180.909 35.4023 181.278 34.6642 181.743 34.0384C182.225 33.4127 182.81 32.9233 183.5 32.5703C184.19 32.2173 184.992 32.0408 185.907 32.0408C186.228 32.0408 186.557 32.0649 186.894 32.113C187.231 32.1451 187.528 32.2013 187.784 32.2815ZM208.941 38.8519C208.781 40.3281 208.259 41.6358 207.377 42.775C206.511 43.8981 205.371 44.7726 203.959 45.3983C202.547 46.0241 200.935 46.3369 199.122 46.3369C197.1 46.3369 195.327 45.9438 193.803 45.1576C192.279 44.3714 191.091 43.2804 190.241 41.8845C189.391 40.4725 188.965 38.8359 188.965 36.9747C188.965 35.1135 189.391 33.4849 190.241 32.089C191.091 30.677 192.279 29.5779 193.803 28.7917C195.327 28.0055 197.1 27.6124 199.122 27.6124C200.935 27.6124 202.547 27.9253 203.959 28.551C205.371 29.1768 206.511 30.0512 207.377 31.1744C208.259 32.2975 208.781 33.6052 208.941 35.0974H205.74C205.564 34.1347 205.179 33.3084 204.585 32.6184C204.008 31.9285 203.253 31.399 202.323 31.03C201.392 30.6449 200.317 30.4524 199.098 30.4524C197.686 30.4524 196.458 30.7171 195.415 31.2466C194.389 31.7761 193.594 32.5302 193.033 33.5089C192.471 34.4877 192.19 35.6429 192.19 36.9747C192.19 38.3064 192.471 39.4617 193.033 40.4404C193.594 41.4191 194.389 42.1733 195.415 42.7027C196.458 43.2322 197.686 43.497 199.098 43.497C200.317 43.497 201.392 43.3125 202.323 42.9434C203.253 42.5744 204.008 42.0449 204.585 41.355C205.179 40.649 205.564 39.8146 205.74 38.8519H208.941ZM219.028 46.3369C217.376 46.3369 215.924 46.0401 214.672 45.4464C213.437 44.8367 212.466 43.9944 211.76 42.9194C211.07 41.8443 210.725 40.6008 210.725 39.1889C210.725 37.7609 211.07 36.5174 211.76 35.4584C212.466 34.3834 213.437 33.5491 214.672 32.9554C215.924 32.3457 217.376 32.0408 219.028 32.0408C220.681 32.0408 222.125 32.3457 223.36 32.9554C224.612 33.5491 225.583 34.3834 226.273 35.4584C226.979 36.5174 227.332 37.7609 227.332 39.1889C227.332 40.6008 226.979 41.8443 226.273 42.9194C225.583 43.9944 224.612 44.8367 223.36 45.4464C222.125 46.0401 220.681 46.3369 219.028 46.3369ZM219.028 43.8821C220.087 43.8821 220.994 43.6895 221.748 43.3044C222.518 42.9194 223.112 42.3818 223.529 41.6919C223.946 40.9859 224.155 40.1516 224.155 39.1889C224.155 38.2262 223.946 37.3999 223.529 36.7099C223.112 36.004 222.518 35.4584 221.748 35.0733C220.994 34.6883 220.087 34.4957 219.028 34.4957C217.985 34.4957 217.079 34.6883 216.309 35.0733C215.539 35.4584 214.945 36.004 214.528 36.7099C214.111 37.3999 213.902 38.2262 213.902 39.1889C213.902 40.1516 214.111 40.9859 214.528 41.6919C214.945 42.3818 215.539 42.9194 216.309 43.3044C217.079 43.6895 217.985 43.8821 219.028 43.8821ZM242.631 46L242.101 40.8255L242.799 39.213L242.125 37.3598L243.136 27.468H246.361L245.134 38.9963L245.832 46H242.631ZM243.545 39.1889C243.24 40.6169 242.735 41.8684 242.029 42.9434C241.323 44.0184 240.449 44.8528 239.406 45.4464C238.379 46.0401 237.232 46.3369 235.964 46.3369C234.632 46.3369 233.453 46.0401 232.426 45.4464C231.399 44.8367 230.597 43.9944 230.019 42.9194C229.442 41.8443 229.153 40.6008 229.153 39.1889C229.153 37.7609 229.442 36.5174 230.019 35.4584C230.597 34.3834 231.399 33.5491 232.426 32.9554C233.453 32.3457 234.632 32.0408 235.964 32.0408C237.232 32.0408 238.379 32.3377 239.406 32.9313C240.449 33.525 241.323 34.3593 242.029 35.4344C242.751 36.4933 243.256 37.7448 243.545 39.1889ZM232.33 39.1889C232.33 40.1035 232.514 40.9137 232.883 41.6197C233.268 42.3096 233.79 42.8552 234.448 43.2563C235.106 43.6414 235.86 43.8339 236.71 43.8339C237.576 43.8339 238.379 43.6414 239.117 43.2563C239.855 42.8552 240.505 42.3096 241.066 41.6197C241.644 40.9137 242.101 40.1035 242.438 39.1889C242.101 38.2743 241.644 37.4721 241.066 36.7821C240.505 36.0762 239.855 35.5306 239.117 35.1455C238.379 34.7444 237.576 34.5439 236.71 34.5439C235.86 34.5439 235.106 34.7444 234.448 35.1455C233.79 35.5306 233.268 36.0762 232.883 36.7821C232.514 37.4721 232.33 38.2743 232.33 39.1889ZM256.279 46.3369C254.691 46.3369 253.279 46.0401 252.043 45.4464C250.808 44.8367 249.837 43.9944 249.131 42.9194C248.425 41.8443 248.072 40.5928 248.072 39.1648C248.072 37.7529 248.401 36.5174 249.059 35.4584C249.733 34.3834 250.655 33.5491 251.827 32.9554C253.014 32.3457 254.37 32.0408 255.894 32.0408C257.418 32.0408 258.734 32.3858 259.841 33.0757C260.964 33.7496 261.831 34.7043 262.44 35.9398C263.05 37.1752 263.355 38.6273 263.355 40.296H250.527V37.9133H261.79L260.226 38.8038C260.178 37.9053 259.961 37.1351 259.576 36.4933C259.207 35.8515 258.702 35.3621 258.06 35.0252C257.434 34.6722 256.688 34.4957 255.822 34.4957C254.907 34.4957 254.105 34.6802 253.415 35.0493C252.741 35.4183 252.212 35.9398 251.827 36.6137C251.441 37.2715 251.249 38.0577 251.249 38.9723C251.249 39.9831 251.474 40.8576 251.923 41.5956C252.388 42.3337 253.038 42.9033 253.872 43.3044C254.723 43.6895 255.725 43.8821 256.881 43.8821C257.924 43.8821 258.991 43.7216 260.082 43.4007C261.173 43.0638 262.135 42.5985 262.97 42.0048V44.2671C262.135 44.9089 261.117 45.4144 259.913 45.7834C258.726 46.1524 257.514 46.3369 256.279 46.3369Z" fill="#66C5B8"/>
</svg>
